<svg t="1611189778643" class="icon" viewBox="0 0 1024 1024" version="1.1" xmlns="http://www.w3.org/2000/svg" p-id="2023" width="200" height="200"><path d="M217.6 985.6h145.066667v38.4H217.6zM657.066667 985.6h145.066666v38.4h-145.066666zM439.466667 985.6h145.066666v38.4h-145.066666z" fill="#1296db" p-id="2024"></path><path d="M896 985.6V896c0-166.4-106.666667-315.733333-268.8-366.933333l-17.066667-4.266667-8.533333 12.8c-29.866667 68.266667-72.533333 149.333333-93.866667 204.8-21.333333-46.933333-55.466667-123.733333-93.866666-200.533333l-8.533334-12.8-17.066666 4.266666C234.666667 580.266667 128 729.6 128 896v89.6H0v38.4h162.133333v-128c0-145.066667 89.6-277.333333 226.133334-324.266667 38.4 85.333333 76.8 162.133333 93.866666 200.533334-38.4 12.8-64 46.933333-64 85.333333 0 51.2 42.666667 89.6 89.6 89.6 51.2 0 89.6-42.666667 89.6-89.6 0-42.666667-25.6-76.8-64-85.333333 21.333333-46.933333 59.733333-132.266667 93.866667-200.533334 136.533333 51.2 226.133333 179.2 226.133333 324.266667v128h170.666667v-38.4h-128z m-328.533333-128c0 29.866667-25.6 55.466667-55.466667 55.466667s-55.466667-25.6-55.466667-55.466667 25.6-55.466667 55.466667-55.466667 55.466667 25.6 55.466667 55.466667zM512 473.6c132.266667 0 238.933333-106.666667 238.933333-238.933333S644.266667 0 512 0 273.066667 106.666667 273.066667 238.933333s106.666667 234.666667 238.933333 234.666667zM512 38.4c110.933333 0 200.533333 89.6 200.533333 200.533333s-89.6 200.533333-200.533333 200.533334-200.533333-89.6-200.533333-200.533334S401.066667 38.4 512 38.4z" fill="#1296db" p-id="2025"></path></svg>