<?xml version="1.0" standalone="no"?><!DOCTYPE svg PUBLIC "-//W3C//DTD SVG 1.1//EN" "http://www.w3.org/Graphics/SVG/1.1/DTD/svg11.dtd"><svg t="1615451588925" class="icon" viewBox="0 0 1024 1024" version="1.1" xmlns="http://www.w3.org/2000/svg" p-id="2137" xmlns:xlink="http://www.w3.org/1999/xlink" width="200" height="200"><defs><style type="text/css"></style></defs><path d="M512 0c282.760533 0 512 229.239467 512 512 0 282.760533-229.239467 512-512 512-282.760533 0-512-229.239467-512-512C0 229.239467 229.239467 0 512 0z" fill="#000000" fill-opacity=".404" p-id="2138"></path><path d="M541.320533 516.846933l154.624-154.624a20.241067 20.241067 0 0 0 0-28.4672l-0.853333-0.853333a20.241067 20.241067 0 0 0-28.4672 0L512 487.765333l-154.624-154.8288a20.241067 20.241067 0 0 0-28.4672 0l-0.853333 0.853334a19.8656 19.8656 0 0 0 0 28.4672l154.624 154.624-154.624 154.624a20.241067 20.241067 0 0 0 0 28.4672l0.853333 0.853333a20.241067 20.241067 0 0 0 28.4672 0L512 546.133333l154.624 154.624a20.241067 20.241067 0 0 0 28.4672 0l0.853333-0.853333a20.241067 20.241067 0 0 0 0-28.4672l-154.624-154.624z" fill="#FFFFFF" p-id="2139"></path></svg>